<svg xmlns="http://www.w3.org/2000/svg" width="100" height="67" viewBox="0 0 100 67" fill="none"><path d="M0.0397949 33.4124C0.0397949 27.2695 5.01728 22.2862 11.1602 22.2862C17.3031 22.2862 22.2864 17.3087 22.2864 11.1658C22.2864 5.0229 27.2696 0.0396729 33.4125 0.0396729C39.5554 0.0396729 44.5329 5.0229 44.5329 11.1658C44.5329 17.3087 39.5554 22.2862 33.4125 22.2862C27.2696 22.2862 22.2864 27.2695 22.2864 33.4124C22.2864 39.5553 27.2696 44.5328 33.4125 44.5328C39.5554 44.5328 44.5329 49.516 44.5329 55.6589C44.5329 61.8018 39.5554 66.7793 33.4125 66.7793C27.2696 66.7793 22.2864 61.8018 22.2864 55.6589C22.2864 49.516 17.3031 44.5328 11.1602 44.5328C5.01728 44.5328 0.0397949 39.5553 0.0397949 33.4124Z" fill="#151A1A"></path><path d="M99.7558 33.4064C99.7558 39.5493 94.7783 44.5325 88.6354 44.5325C82.4925 44.5325 77.5093 49.51 77.5093 55.653C77.5093 61.7959 72.526 66.7791 66.3831 66.7791C60.2402 66.7791 55.2627 61.7959 55.2627 55.653C55.2627 49.51 60.2402 44.5325 66.3831 44.5325C72.526 44.5325 77.5093 39.5493 77.5093 33.4064C77.5093 27.2635 72.526 22.286 66.3831 22.286C60.2402 22.286 55.2627 17.3028 55.2627 11.1598C55.2627 5.01692 60.2402 0.0394287 66.3831 0.0394287C72.526 0.0394287 77.5093 5.01692 77.5093 11.1598C77.5093 17.3028 82.4925 22.286 88.6354 22.286C94.7783 22.286 99.7558 27.2635 99.7558 33.4064Z" fill="#151A1A"></path><path d="M50.0038 44.0501C55.9742 44.0501 60.8141 39.2101 60.8141 33.2397C60.8141 27.2693 55.9742 22.4293 50.0038 22.4293C44.0333 22.4293 39.1934 27.2693 39.1934 33.2397C39.1934 39.2101 44.0333 44.0501 50.0038 44.0501Z" fill="#151A1A"></path></svg>