<svg width="64" height="64" viewBox="0 0 64 64" xmlns="http://www.w3.org/2000/svg">
  <title>Dog Icon</title>
  <circle cx="32" cy="24" r="12" fill="#A0522D" />
  <circle cx="28" cy="20" r="4" fill="#FFFFFF" />
  <circle cx="28" cy="20" r="2" fill="#000000" />
  <circle cx="38" cy="20" r="4" fill="#FFFFFF" />
  <circle cx="38" cy="20" r="2" fill="#000000" />
  <path d="M32 30C34 30 36 33 36 36C36 39 34 42 32 42C30 42 28 39 28 36C28 33 30 30 32 30Z" fill="#A0522D" />
  <path d="M20 18C18 16 16 12 18 10C20 8 24 9 26 10C28 11 30 11.5 32 11.5C34 11.5 36 11 38 10C40 9 44 8 46 10C48 12 46 16 44 18C42 19 40 17 38 17C36 17 33 18 32 18C31 18 28 17 26 17C24 17 22 19 20 18Z" fill="#A0522D" />
  <circle cx="32" cy="52" r="10" fill="#D2691E" />
  <path d="M24 56C22 54 20 50 22 48C24 46 28 47 30 48C32 49 34 49.5 36 49.5C38 49.5 40 49 42 48C44 47 48 46 50 48C52 50 50 54 48 56C46 57 44 55 42 55C40 55 37 56 36 56C35 56 32 55 30 55C28 55 26 57 24 56Z" fill="#D2691E" />
  <path d="M18 8C16 6 12 4 10 6C8 8 9 12 10 14C11 16 11.5 18 11.5 20C11.5 22 11 24 10 26C8 28 6 32 8 34C10 36 14 34 16 32C17 30 15.5 28 15.5 26C15.5 24 16 21 16 20C16 19 17 16 17 14C17 12 18 8 18 8Z" fill="#FF6347" />
  <path d="M46 8C48 6 52 4 54 6C56 8 55 12 54 14C53 16 52.5 18 52.5 20C52.5 22 53 24 54 26C56 28 58 32 56 34C54 36 50 34 48 32C47 30 48.5 28 48.5 26C48.5 24 48 21 48 20C48 19 47 16 47 14C47 12 46 8 46 8Z" fill="#FF6347" />
</svg>