<svg width="200" height="200" viewBox="0 0 200 200" xmlns="http://www.w3.org/2000/svg">
  <title>Dog Logo</title>
  <circle cx="100" cy="100" r="90" fill="#FFD700" />
  <circle cx="70" cy="70" r="12" fill="#FFFFFF" />
  <circle cx="70" cy="70" r="6" fill="#000000" />
  <circle cx="130" cy="70" r="12" fill="#FFFFFF" />
  <circle cx="130" cy="70" r="6" fill="#000000" />
  <path d="M90 90 Q100 115 110 90" stroke="#000000" stroke-width="4" fill="none"/>
  <ellipse cx="100" cy="130" rx="25" ry="10" fill="#FFD700" />
  <text x="100" y="170" font-family="Arial, sans-serif" font-size="24" text-anchor="middle" fill="#3E2723">
    Woof
  </text>
  <g transform="translate(0,0)">
    <path d="M20 60 Q5 50 5 70 Q5 90 20 80 Z" fill="#8B4513" transform="rotate(-30,20,70)"/>
    <path d="M180 60 Q195 50 195 70 Q195 90 180 80 Z" fill="#8B4513" transform="rotate(30,180,70)"/>
  </g>
  <g transform="translate(100,140)">
    <path d="M-15 -5 Q-10 -15 0 -5 Q10 -15 15 -5" stroke="#3E2723" stroke-width="2" fill="none"/>
  </g>
</svg>